<svg xmlns="http://www.w3.org/2000/svg" width="20" height="20"><rect width="20" height="20" rx="10" fill="#fff"/><path d="M9.995-.005C4.61-.005.22 4.25 0 9.583c1.525-.798 2.914-.23 3.596.398.856.787.942 1.909.84 2.948 1.874-.253 2.441 1.856 2.398 2.421-.018.227-.035.253-.09.285a.253.253 0 0 1-.177 0 .868.868 0 0 0-.086-.343 5.684 5.684 0 0 0-.138-.27c-.182-.414-.544-.915-1.038-1.12a2.143 2.143 0 0 0-.467-.186c-.326-.088-.678-.01-.996.072-.147.038-.292.082-.438.12-.061.016-.124.025-.185.036-.1-.12-.18-.26-.162-.386.15-.19.324-.34.492-.438.099-.708-.132-2.425-1.936-2.409-.527.005-1.088.326-1.488.929.783 4.746 4.903 8.365 9.87 8.365C15.52 20.005 20 15.525 20 10.001 20 4.476 15.52-.003 9.995-.003zm-1.65 10.497c-.063.344-.193 1.35-.212 1.989-.018.742.026 1.68-.336 1.302-.23-.239-.435-.713-.501-1.207-.067-.494-.312-2.255.107-3.671.092-.312.387-.609 1.045-.664 1.59-.133 2.773-.138 4.177.124.28.052.941.187 1.25.376.087.053.057.13-.066.165-1.176.338-2.746.158-4.174.372-.646.097-1.136.371-1.29 1.214zm3.731 3.604a1.381 1.381 0 0 1-1.306 1.133h-.123a1.367 1.367 0 0 1-1.032-.53c-.204-.264-.288-.522-.326-.84-.02-.327.085-.612.26-.848.09-.122.208-.23.326-.314.043-.027.094-.057.134-.079.11-.064.238-.111.363-.137a1.41 1.41 0 0 1 1.718 1.19c.02.14.01.294-.014.425zm4.127.115c-.01.084-.034.167-.063.246-.044.131-.122.254-.217.358a1.206 1.206 0 0 1-.76.405c-.039.007-.077.007-.119.007-.036.003-.077 0-.116 0-.024 0-.049-.007-.08-.007a.21.21 0 0 0-.051-.008c-.009-.004-.021-.007-.034-.01-.045-.006-.083-.02-.12-.03a1.203 1.203 0 0 1-.575-.386 1.138 1.138 0 0 1-.258-.55 1.17 1.17 0 0 1 .147-.828 1.124 1.124 0 0 1 .711-.515c.217-.041.522-.016.758.075.139.042.26.123.374.217.3.246.462.613.403 1.026zm1.332-.022c-.096-.078-.112-1.051-.194-1.56-.134-.828-1.98-.342-2.536-1.23-.14-.226-.413-1.08-.344-1.72.014-.12.036-.166.108-.166.219 0 .65.951 1 1.354.116.13.263.17.362.197.657.179 1.135.275 1.626.438.516.173.594.476.631.61.06.211.04 1.086-.372 1.903-.08.161-.202.237-.281.174z" fill="#dc0019"/></svg>